<?xml version="1.0" encoding="utf-8"?>
<!-- Generator: Adobe Illustrator 23.0.3, SVG Export Plug-In . SVG Version: 6.00 Build 0)  -->
<svg version="1.1" id="Capa_1" xmlns="http://www.w3.org/2000/svg" xmlns:xlink="http://www.w3.org/1999/xlink" x="0px" y="0px"
	 viewBox="0 0 806 248.2" style="enable-background:new 0 0 806 248.2;" xml:space="preserve">
<style type="text/css">
	.st0{fill:#444444;}
	.st1{fill:#C18847;}
	.st2{font-family:'OpenSans-Bold';}
	.st3{font-size:80px;}
</style>
<g>
	<path class="st0" d="M136.6,7l-6,2.9L0,76.1L11.7,91v136h249.8V91l11.7-14.9L142.6,9.9L136.6,7z M136.6,28.8l102.2,51.6v128.2H34.4
		V80.4L136.6,28.8z M91.2,80.1c-6.1-0.1-11.9,1.8-16.3,5.2c-4.2,3.6-6.5,8.3-6.4,13.2v13.8c-7.2,4.3-11.4,11.1-11.4,18.4v59.7h22.7
		v-9.2h113.5v9.2H216v-59.7c0.1-7.2-4.2-14-11.4-18.4V98.5c0.5-9.7-8.8-17.9-20.9-18.4c-0.6,0-1.2,0-1.8,0H91.2z M91.2,98.5H182v9.7
		c-10.6,1.9-18.1,9.1-20.6,17.8h-49.7c-2.5-8.7-10-15.8-20.6-17.8L91.2,98.5L91.2,98.5z M85.5,126c2.5,0,5.7,2.6,5.7,4.6v13.8H182
		v-13.8c0-2,3.2-4.6,5.7-4.6s5.7,2.6,5.7,4.6v32.1H79.8v-32.1C79.8,128.6,83.1,126,85.5,126L85.5,126z"/>
	<text transform="matrix(1.245 0 0 1 326.1982 166.6504)" class="st1 st2 st3">INTERIOR</text>
</g>
</svg>
